<mxfile host="app.diagrams.net" agent="Mozilla/5.0 (Windows NT 10.0; Win64; x64) AppleWebKit/537.36 (KHTML, like Gecko) Chrome/128.0.0.0 Safari/537.36" version="26.2.9">
  <diagram name="1 oldal" id="4EkotTIyqv-qm1i6NP2s">
    <mxGraphModel dx="1126" dy="704" grid="1" gridSize="10" guides="1" tooltips="1" connect="1" arrows="1" fold="1" page="1" pageScale="1" pageWidth="827" pageHeight="1169" math="0" shadow="0">
      <root>
        <mxCell id="0" />
        <mxCell id="1" parent="0" />
        <mxCell id="5wxFZPzmkBkUqNc0EMhP-1" value="" style="group" parent="1" vertex="1" connectable="0">
          <mxGeometry x="63" y="300" width="700" height="740" as="geometry" />
        </mxCell>
        <mxCell id="5wxFZPzmkBkUqNc0EMhP-2" value="" style="group" parent="5wxFZPzmkBkUqNc0EMhP-1" vertex="1" connectable="0">
          <mxGeometry x="150" width="360" height="740" as="geometry" />
        </mxCell>
        <mxCell id="5wxFZPzmkBkUqNc0EMhP-3" value="" style="rounded=0;whiteSpace=wrap;html=1;" parent="5wxFZPzmkBkUqNc0EMhP-2" vertex="1">
          <mxGeometry width="360" height="630" as="geometry" />
        </mxCell>
        <mxCell id="5wxFZPzmkBkUqNc0EMhP-4" value="Időpontok kezelése" style="text;html=1;align=center;verticalAlign=middle;whiteSpace=wrap;rounded=0;fontSize=18;" parent="5wxFZPzmkBkUqNc0EMhP-2" vertex="1">
          <mxGeometry x="97.5" y="10" width="165" height="30" as="geometry" />
        </mxCell>
        <mxCell id="5wxFZPzmkBkUqNc0EMhP-5" value="UC_I_List&amp;nbsp;&lt;br&gt;Időpontok listázása" style="ellipse;whiteSpace=wrap;html=1;fillColor=#fff2cc;strokeColor=#d6b656;" parent="5wxFZPzmkBkUqNc0EMhP-2" vertex="1">
          <mxGeometry x="92.5" y="80" width="170" height="100" as="geometry" />
        </mxCell>
        <mxCell id="5wxFZPzmkBkUqNc0EMhP-6" value="UC_I_Create&lt;br&gt;Időpont foglalása" style="ellipse;whiteSpace=wrap;html=1;fillColor=#fff2cc;strokeColor=#d6b656;" parent="5wxFZPzmkBkUqNc0EMhP-2" vertex="1">
          <mxGeometry x="95" y="335" width="170" height="100" as="geometry" />
        </mxCell>
        <mxCell id="5wxFZPzmkBkUqNc0EMhP-7" value="UC_I_Read&lt;br&gt;Időpont megtekintése" style="ellipse;whiteSpace=wrap;html=1;fillColor=#fff2cc;strokeColor=#d6b656;" parent="5wxFZPzmkBkUqNc0EMhP-2" vertex="1">
          <mxGeometry x="95" y="220" width="170" height="100" as="geometry" />
        </mxCell>
        <mxCell id="5wxFZPzmkBkUqNc0EMhP-9" value="UC_I_Delete&lt;br&gt;Időpont törlése" style="ellipse;whiteSpace=wrap;html=1;fillColor=#fff2cc;strokeColor=#d6b656;" parent="5wxFZPzmkBkUqNc0EMhP-2" vertex="1">
          <mxGeometry x="95" y="470" width="170" height="100" as="geometry" />
        </mxCell>
        <mxCell id="5wxFZPzmkBkUqNc0EMhP-10" value="&lt;font style=&quot;font-size: 18px;&quot;&gt;Látogató&lt;/font&gt;" style="shape=umlActor;verticalLabelPosition=bottom;verticalAlign=top;html=1;outlineConnect=0;fillColor=#d5e8d4;strokeColor=#82b366;" parent="5wxFZPzmkBkUqNc0EMhP-1" vertex="1">
          <mxGeometry y="270" width="100" height="200" as="geometry" />
        </mxCell>
        <mxCell id="5wxFZPzmkBkUqNc0EMhP-11" value="&lt;font style=&quot;font-size: 18px;&quot;&gt;Adminisztrátor&lt;/font&gt;" style="shape=umlActor;verticalLabelPosition=bottom;verticalAlign=top;html=1;outlineConnect=0;fillColor=#f8cecc;strokeColor=#b85450;" parent="5wxFZPzmkBkUqNc0EMhP-1" vertex="1">
          <mxGeometry x="600" y="270" width="100" height="200" as="geometry" />
        </mxCell>
        <mxCell id="5wxFZPzmkBkUqNc0EMhP-14" value="" style="endArrow=none;html=1;rounded=0;entryX=0;entryY=0.3333333333333333;entryDx=0;entryDy=0;entryPerimeter=0;exitX=1;exitY=0.5;exitDx=0;exitDy=0;" parent="5wxFZPzmkBkUqNc0EMhP-1" source="5wxFZPzmkBkUqNc0EMhP-7" target="5wxFZPzmkBkUqNc0EMhP-11" edge="1">
          <mxGeometry width="50" height="50" relative="1" as="geometry">
            <mxPoint x="470" y="200" as="sourcePoint" />
            <mxPoint x="600" y="300" as="targetPoint" />
          </mxGeometry>
        </mxCell>
        <mxCell id="5wxFZPzmkBkUqNc0EMhP-15" value="" style="endArrow=none;html=1;rounded=0;entryX=0;entryY=0.3333333333333333;entryDx=0;entryDy=0;entryPerimeter=0;exitX=1;exitY=0.5;exitDx=0;exitDy=0;" parent="5wxFZPzmkBkUqNc0EMhP-1" source="5wxFZPzmkBkUqNc0EMhP-5" target="5wxFZPzmkBkUqNc0EMhP-11" edge="1">
          <mxGeometry width="50" height="50" relative="1" as="geometry">
            <mxPoint x="470" y="150" as="sourcePoint" />
            <mxPoint x="600" y="340" as="targetPoint" />
          </mxGeometry>
        </mxCell>
        <mxCell id="5wxFZPzmkBkUqNc0EMhP-16" value="" style="endArrow=none;html=1;rounded=0;entryX=0;entryY=0.3333333333333333;entryDx=0;entryDy=0;entryPerimeter=0;exitX=1;exitY=0.5;exitDx=0;exitDy=0;" parent="5wxFZPzmkBkUqNc0EMhP-1" source="5wxFZPzmkBkUqNc0EMhP-6" target="5wxFZPzmkBkUqNc0EMhP-11" edge="1">
          <mxGeometry width="50" height="50" relative="1" as="geometry">
            <mxPoint x="460" y="260" as="sourcePoint" />
            <mxPoint x="590" y="370" as="targetPoint" />
          </mxGeometry>
        </mxCell>
        <mxCell id="5wxFZPzmkBkUqNc0EMhP-18" value="" style="endArrow=none;html=1;rounded=0;entryX=0;entryY=0.3333333333333333;entryDx=0;entryDy=0;entryPerimeter=0;exitX=1;exitY=0.5;exitDx=0;exitDy=0;" parent="5wxFZPzmkBkUqNc0EMhP-1" source="5wxFZPzmkBkUqNc0EMhP-9" target="5wxFZPzmkBkUqNc0EMhP-11" edge="1">
          <mxGeometry width="50" height="50" relative="1" as="geometry">
            <mxPoint x="440" y="380" as="sourcePoint" />
            <mxPoint x="570" y="480" as="targetPoint" />
          </mxGeometry>
        </mxCell>
        <mxCell id="5wxFZPzmkBkUqNc0EMhP-19" value="" style="endArrow=none;html=1;rounded=0;entryX=0;entryY=0.5;entryDx=0;entryDy=0;exitX=1;exitY=0.3333333333333333;exitDx=0;exitDy=0;exitPerimeter=0;" parent="5wxFZPzmkBkUqNc0EMhP-1" source="5wxFZPzmkBkUqNc0EMhP-10" target="5wxFZPzmkBkUqNc0EMhP-6" edge="1">
          <mxGeometry width="50" height="50" relative="1" as="geometry">
            <mxPoint x="87" y="403.5" as="sourcePoint" />
            <mxPoint x="232" y="336.5" as="targetPoint" />
          </mxGeometry>
        </mxCell>
      </root>
    </mxGraphModel>
  </diagram>
</mxfile>
